mtllib new-0.mtl
v -0.51671419 -0.50543222 -0.51609508
v 0.50878685 -0.53844308 -0.51599734
v -0.53873104 -0.53843322 -0.51604340
v -0.51551979 -0.50543281 0.46452425
v -0.53862084 -0.71394000 -0.51601309
v -0.05142680 -0.53836695 -0.05931012
v 0.34297376 -0.53310963 0.46573869
v -0.53867206 -0.53831355 0.33771073
v -0.53869193 -0.71386872 0.33784225
v 0.50862931 -0.71394873 -0.51615543
v 0.50861519 -0.53843963 0.33780410
v 0.37222902 -0.53826636 0.33778766
v -0.51686631 -0.50545826 -0.48305823
v -0.53859037 -0.53830709 0.33914494
v 0.50865340 -0.71384477 0.33771578
v 0.50868727 -0.53832200 0.33904753
v -0.01488179 -0.50536406 -0.48314922
v -0.53864761 -0.71393549 0.33902566
v 0.50865673 -0.71396810 0.33906790
v -0.18585290 -0.50534650 0.14193906
v -0.01487249 -0.50538751 0.46444027
v 0.48679727 -0.50550604 0.46437024
v -0.01488088 -0.50542159 -0.02524082
v 0.14484698 -0.50537920 -0.18141048
vn 0.005274 0.164315 0.986394
vn -0.195269 0.108892 0.974686
vn 0.195269 -0.108892 -0.974686
vn -0.005274 -0.164315 -0.986394
vn 0.000000 0.000000 1.000000
vn 0.000000 0.000000 -1.000000
vn 0.000000 1.000000 0.000000
vn 0.000000 -1.000000 0.000000
vn -0.073918 0.441062 0.894427
vn 0.073918 -0.441062 -0.894427
vn -1.000000 0.000000 0.000000
vn 1.000000 0.000000 0.000000
vn 0.014345 0.446462 -0.894687
vn -0.014345 -0.446462 0.894687
vn 0.000000 0.000000 0.000000
vn 0.032083 0.999485 -0.000009
vn -0.032083 -0.999485 0.000009
vt 2.123586 0.058178
vt 1.785502 0.058178
vt 1.785502 0.001518
vt 1.509868 0.058178
vt 1.509868 0.001518
vt 2.123586 0.001518
vt 2.399220 0.102239
vt 2.271010 0.239003
vt 1.942761 -0.070033
vt 2.079525 0.058178
vt 2.123586 -0.217456
vt 2.061136 0.058178
vt 2.123586 -0.274117
vt 1.785502 -0.274117
vt 1.785502 0.277152
vt 2.399220 0.001517
vt 2.399220 0.058178
vt 1.778459 0.353057
vt 1.785093 0.058178
vt 1.785093 0.001518
vt 2.123586 0.001109
vt 2.123996 0.058178
vt 1.671599 0.151299
vt 2.098761 0.040022
vt 1.899405 0.151299
vt 1.616460 0.353057
vt 2.102329 0.201981
vt 1.616460 0.047193
vt 2.116543 0.047193
vt 1.447417 0.058178
vt 1.785502 0.001109
vt 2.123995 0.001518
vt 1.954544 0.047193
vt 1.616460 0.205237
vt 1.954544 0.205236
vt 1.454461 0.047193
vt 1.447417 0.001518
vt 1.561321 0.151299
vt 1.564888 0.255685
vt 2.006116 0.255685
vt 1.564887 0.255686
vt 2.006117 0.255685
vt 2.207564 0.181203
vt 2.076826 0.270002
usemtl material-0
f 3/2/5 5/3/9 2/1/9
f 2/1/10 5/3/10 3/2/6
f 3/2/12 9/5/12 5/3/12
f 5/3/11 9/5/11 3/2/11
f 2/1/9 5/3/9 10/6/5
f 10/6/6 5/3/10 2/1/10
f 2/1/8 12/7/8 6/8/8
f 6/9/7 12/10/7 2/11/7
f 3/2/12 8/4/12 9/5/12
f 9/3/11 8/2/11 3/12/11
f 15/13/7 5/3/7 9/14/7
f 9/3/8 5/15/8 15/6/8
f 10/6/7 5/3/7 15/13/7
f 15/13/8 5/3/8 10/6/8
f 15/16/11 2/1/11 10/6/11
f 10/6/12 2/1/12 15/16/12
f 2/1/11 15/16/11 11/17/11
f 11/17/12 15/16/12 2/1/12
f 12/10/8 8/2/8 6/9/8
f 6/9/7 8/2/7 12/10/7
f 8/2/12 14/19/12 18/20/12
f 18/20/11 14/19/11 8/2/11
f 8/2/12 18/20/12 9/3/12
f 9/3/11 18/20/11 8/2/11
f 11/1/9 8/2/5 9/3/9
f 9/3/10 8/2/6 11/1/10
f 15/6/7 9/3/7 19/21/7
f 19/21/8 9/3/8 15/6/8
f 11/1/9 9/3/9 15/6/5
f 15/6/6 9/3/10 11/1/10
f 15/6/11 16/22/11 11/1/11
f 11/1/12 16/22/12 15/6/12
f 17/26/8 20/23/15 13/18/8
f 13/24/7 20/25/15 17/27/7
f 14/2/6 16/30/6 18/3/6
f 18/3/5 16/30/5 14/2/5
f 19/21/7 9/3/7 18/31/7
f 18/31/8 9/3/8 19/21/8
f 15/6/11 19/32/11 16/22/11
f 16/22/12 19/32/12 15/6/12
f 20/23/15 17/26/8 23/34/8
f 23/35/7 17/27/7 20/25/15
f 16/30/6 19/37/6 18/3/6
f 18/3/5 19/37/5 16/30/5
f 23/35/8 20/25/15 21/33/15
f 21/28/15 20/38/15 23/34/7
f 24/39/8 23/34/8 17/26/8
f 17/27/7 23/35/7 24/40/7
f 21/28/15 24/41/8 22/36/8
f 22/29/7 24/42/7 21/43/15
f 24/41/8 21/28/15 23/34/8
f 23/44/7 21/43/15 24/42/7
usemtl material-1
f 1//1 4//16 2//2
f 2//3 4//17 1//4
f 2//2 4//16 7//13
f 7//14 4//17 2//3
f 5//9 11//9 2//9
f 2//10 11//10 5//10
f 11//9 5//9 9//9
f 9//10 5//10 11//10
