# SSTK version 0.8.0
# 6
mtllib original-6.mtl
o mesh6/mesh6-geometry#mesh6-geometry
v 0.02781969 0.76747031 0.50194143
v 0.01869091 0.76741532 0.50740805
v 0.01867360 0.76743128 0.51753920
v 0.02300450 0.76743404 0.50260910
v 0.01731124 0.76747429 0.50728307
v 0.03435821 0.76741837 0.50192154
v 0.01732548 0.76750378 0.51772749
v 0.03914978 0.76747170 0.50250732
v 0.01893416 0.76742997 0.51860544
v 0.01918407 0.76737668 0.51945074
v 0.01974080 0.76752045 0.52022178
v 0.02020808 0.76748090 0.52114966
v 0.02107335 0.76746042 0.52168349
v 0.02191947 0.76735157 0.52210920
v 0.02297707 0.76747705 0.52248405
v 0.02793625 0.76739840 0.52310206
v 0.03432806 0.76753097 0.52317730
v 0.03916676 0.76750133 0.52239006
v 0.04016222 0.76752944 0.52208583
v 0.04117855 0.76753187 0.52168212
v 0.04184901 0.76750252 0.52104062
v 0.04256924 0.76735111 0.52025524
v 0.04300944 0.76746269 0.51936987
v 0.04341979 0.76753017 0.51846846
v 0.04341888 0.76737545 0.51753589
v 0.04349914 0.76738190 0.50738459
v 0.04493412 0.76739254 0.50723693
v 0.04485797 0.76745178 0.51765919
vt 1.968377 0.035081
vt 1.965426 0.033304
vt 1.965426 0.030063
vt 1.966803 0.03489
vt 1.964946 0.033349
vt 1.970442 0.035081
vt 1.964946 0.029991
vt 1.972016 0.03489
vt 1.965461 0.029739
vt 1.965559 0.029435
vt 1.965716 0.029159
vt 1.965925 0.028918
vt 1.96618 0.028718
vt 1.966475 0.028568
vt 1.966802 0.028473
vt 1.968379 0.028259
vt 1.970442 0.028259
vt 1.972018 0.028473
vt 1.972346 0.028568
vt 1.97264 0.028718
vt 1.972894 0.028918
vt 1.973103 0.029159
vt 1.97326 0.029435
vt 1.97336 0.029739
vt 1.973394 0.030063
vt 1.973394 0.033304
vt 1.973874 0.033349
vt 1.973874 0.029991
vn 0 1 0
vn 0 -1 0
usemtl material_0_0
f 1/1/1 2/2/1 3/3/1
f 3/3/2 2/2/2 1/1/2
f 1/1/1 4/4/1 2/2/1
f 2/2/2 4/4/2 1/1/2
f 2/2/1 5/5/1 3/3/1
f 3/3/2 5/5/2 2/2/2
f 6/6/1 1/1/1 3/3/1
f 3/3/2 1/1/2 6/6/2
f 3/3/1 5/5/1 7/7/1
f 7/7/2 5/5/2 3/3/2
f 8/8/1 6/6/1 3/3/1
f 3/3/2 6/6/2 8/8/2
f 8/8/1 3/3/1 9/9/1
f 9/9/2 3/3/2 8/8/2
f 8/8/1 9/9/1 10/10/1
f 10/10/2 9/9/2 8/8/2
f 8/8/1 10/10/1 11/11/1
f 11/11/2 10/10/2 8/8/2
f 8/8/1 11/11/1 12/12/1
f 12/12/2 11/11/2 8/8/2
f 8/8/1 12/12/1 13/13/1
f 13/13/2 12/12/2 8/8/2
f 8/8/1 13/13/1 14/14/1
f 14/14/2 13/13/2 8/8/2
f 8/8/1 14/14/1 15/15/1
f 15/15/2 14/14/2 8/8/2
f 8/8/1 15/15/1 16/16/1
f 16/16/2 15/15/2 8/8/2
f 8/8/1 16/16/1 17/17/1
f 17/17/2 16/16/2 8/8/2
f 18/18/1 8/8/1 17/17/1
f 17/17/2 8/8/2 18/18/2
f 19/19/1 8/8/1 18/18/1
f 18/18/2 8/8/2 19/19/2
f 20/20/1 8/8/1 19/19/1
f 19/19/2 8/8/2 20/20/2
f 21/21/1 8/8/1 20/20/1
f 20/20/2 8/8/2 21/21/2
f 22/22/1 8/8/1 21/21/1
f 21/21/2 8/8/2 22/22/2
f 23/23/1 8/8/1 22/22/1
f 22/22/2 8/8/2 23/23/2
f 24/24/1 8/8/1 23/23/1
f 23/23/2 8/8/2 24/24/2
f 25/25/1 8/8/1 24/24/1
f 24/24/2 8/8/2 25/25/2
f 26/26/1 8/8/1 25/25/1
f 25/25/2 8/8/2 26/26/2
f 27/27/1 26/26/1 25/25/1
f 25/25/2 26/26/2 27/27/2
f 27/27/1 25/25/1 28/28/1
f 28/28/2 25/25/2 27/27/2
