# SSTK version 0.8.0
# 14
mtllib original-14.mtl
o mesh14/mesh14-geometry#mesh14-geometry
v -0.06329859 0.76763481 0.49997828
v -0.07555553 0.76764085 0.49986764
v -0.07749316 0.76757399 0.49643616
v -0.07133343 0.76764962 0.48435408
v -0.06261427 0.76763656 0.49982421
v -0.06189290 0.76762598 0.49943298
v -0.06150661 0.76771349 0.49910710
v -0.06102953 0.76776134 0.49838166
v -0.06081809 0.76766770 0.49774680
v -0.06096475 0.76771474 0.49714312
vt 1.63209 0.035734
vt 1.636002 0.035734
vt 1.636632 0.036847
vt 1.634641 0.040757
vt 1.63184 0.035772
vt 1.631625 0.035874
vt 1.631456 0.036027
vt 1.631339 0.036219
vt 1.631285 0.036435
vt 1.631299 0.036663
vn 0 -1 0
vn 0 1 0
usemtl material_0_0
f 1/1/1 2/2/1 3/3/1
f 3/3/2 2/2/2 1/1/2
f 1/1/1 3/3/1 4/4/1
f 4/4/2 3/3/2 1/1/2
f 5/5/1 1/1/1 4/4/1
f 4/4/2 1/1/2 5/5/2
f 6/6/1 5/5/1 4/4/1
f 4/4/2 5/5/2 6/6/2
f 7/7/1 6/6/1 4/4/1
f 4/4/2 6/6/2 7/7/2
f 8/8/1 7/7/1 4/4/1
f 4/4/2 7/7/2 8/8/2
f 9/9/1 8/8/1 4/4/1
f 4/4/2 8/8/2 9/9/2
f 9/9/1 4/4/1 10/10/1
f 10/10/2 4/4/2 9/9/2
