# SSTK version 0.8.0
# 15
mtllib original-15.mtl
o mesh15/mesh15-geometry#mesh15-geometry
v -0.06268319 0.76776835 0.50594177
v -0.06329539 0.76773912 0.50579801
v -0.07136221 0.76774745 0.52137676
v -0.07736524 0.76758790 0.50924897
v -0.06185849 0.76767871 0.50642291
v -0.07558102 0.76768057 0.50586785
v -0.06138843 0.76760310 0.50682357
v -0.06107319 0.76757011 0.50730217
v -0.06079134 0.76766501 0.50811539
v -0.06096319 0.76765191 0.50879692
vt 1.939164 0.033774
vt 1.938914 0.033812
vt 1.936362 0.028789
vt 1.934372 0.032699
vt 1.939378 0.033672
vt 1.935002 0.033812
vt 1.939548 0.033519
vt 1.939664 0.033327
vt 1.939719 0.03311
vt 1.939705 0.032883
vn 0 1 0
vn 0 -1 0
usemtl material_0_0
f 1/1/1 2/2/1 3/3/1
f 3/3/2 2/2/2 1/1/2
f 2/2/1 4/4/1 3/3/1
f 3/3/2 4/4/2 2/2/2
f 5/5/1 1/1/1 3/3/1
f 3/3/2 1/1/2 5/5/2
f 2/2/1 6/6/1 4/4/1
f 4/4/2 6/6/2 2/2/2
f 7/7/1 5/5/1 3/3/1
f 3/3/2 5/5/2 7/7/2
f 8/8/1 7/7/1 3/3/1
f 3/3/2 7/7/2 8/8/2
f 9/9/1 8/8/1 3/3/1
f 3/3/2 8/8/2 9/9/2
f 9/9/1 3/3/1 10/10/1
f 10/10/2 3/3/2 9/9/2
