# SSTK version 0.8.0
# 16
mtllib original-16.mtl
o mesh16/mesh16-geometry#mesh16-geometry
v -0.43278966 0.76716011 0.52805250
v -0.43961491 0.76728678 0.52149812
v -0.43576447 0.76723646 0.52650588
v -0.44027549 0.76729886 0.51836158
v -0.42940505 0.76720695 0.52850152
v -0.44033305 0.76724248 0.48834909
v -0.43974590 0.76718581 0.48522342
v -0.43811556 0.76721162 0.48233708
v -0.43586930 0.76727587 0.48003194
v -0.43274909 0.76720805 0.47871584
v -0.42945914 0.76726932 0.47816257
v 0.39364218 0.76724992 0.47813850
v 0.39707131 0.76730136 0.47856248
v 0.39989412 0.76725041 0.48016937
v 0.40235571 0.76722632 0.48224677
v 0.40393112 0.76715937 0.48523166
v 0.40447039 0.76715312 0.48832733
v 0.39356300 0.76723865 0.52852806
v 0.40440078 0.76729153 0.51818987
v 0.39695022 0.76727720 0.52807075
v 0.39995367 0.76722428 0.52659497
v 0.40232410 0.76716284 0.52442535
vt 1.819655 0.026656
vt 1.817434 0.028765
vt 1.818693 0.027129
vt 1.817256 0.029817
vt 1.820763 0.026487
vt 1.817256 0.039454
vt 1.817434 0.040506
vt 1.817934 0.04142
vt 1.818693 0.042143
vt 1.819655 0.042616
vt 1.820763 0.042785
vt 2.086423 0.042785
vt 2.087531 0.042616
vt 2.088493 0.042143
vt 2.089254 0.04142
vt 2.089751 0.040507
vt 2.08993 0.039454
vt 2.086423 0.026487
vt 2.08993 0.029817
vt 2.087531 0.026656
vt 2.088493 0.027129
vt 2.089254 0.027851
vn 0 1 0
vn 0 -1 0
usemtl material_0_0
f 1/1/1 2/2/1 3/3/1
f 3/3/2 2/2/2 1/1/2
f 1/1/1 4/4/1 2/2/1
f 2/2/2 4/4/2 1/1/2
f 5/5/1 4/4/1 1/1/1
f 1/1/2 4/4/2 5/5/2
f 5/5/1 6/6/1 4/4/1
f 4/4/2 6/6/2 5/5/2
f 5/5/1 7/7/1 6/6/1
f 6/6/2 7/7/2 5/5/2
f 5/5/1 8/8/1 7/7/1
f 7/7/2 8/8/2 5/5/2
f 5/5/1 9/9/1 8/8/1
f 8/8/2 9/9/2 5/5/2
f 5/5/1 10/10/1 9/9/1
f 9/9/2 10/10/2 5/5/2
f 11/11/1 10/10/1 5/5/1
f 5/5/2 10/10/2 11/11/2
f 12/12/1 11/11/1 5/5/1
f 5/5/2 11/11/2 12/12/2
f 13/13/1 12/12/1 5/5/1
f 5/5/2 12/12/2 13/13/2
f 14/14/1 13/13/1 5/5/1
f 5/5/2 13/13/2 14/14/2
f 15/15/1 14/14/1 5/5/1
f 5/5/2 14/14/2 15/15/2
f 16/16/1 15/15/1 5/5/1
f 5/5/2 15/15/2 16/16/2
f 17/17/1 16/16/1 5/5/1
f 5/5/2 16/16/2 17/17/2
f 17/17/1 5/5/1 18/18/1
f 18/18/2 5/5/2 17/17/2
f 17/17/1 18/18/1 19/19/1
f 19/19/2 18/18/2 17/17/2
f 19/19/1 18/18/1 20/20/1
f 20/20/2 18/18/2 19/19/2
f 19/19/1 20/20/1 21/21/1
f 21/21/2 20/20/2 19/19/2
f 19/19/1 21/21/1 22/22/1
f 22/22/2 21/21/2 19/19/2
