# https://github.com/mikedh/trimesh
mtllib 2c681d7e64e0410d76156f500cd2df798975a25d_part_4.mtl
usemtl material_0
v -0.34233437 0.50575518 0.25726323
v -0.33164966 0.50575518 0.25726323
v -0.33308114 0.51109757 0.25726323
v -0.33308114 0.50041288 0.25726323
v -0.33699200 0.51500845 0.25726323
v -0.33699202 0.49650200 0.25726323
v -0.34233437 0.51643987 0.25726323
v -0.34233437 0.49507050 0.25726323
v -0.34767673 0.51500845 0.25726323
v -0.34767673 0.49650200 0.25726323
v -0.35158757 0.51109757 0.25726323
v -0.35158757 0.50041288 0.25726323
v -0.35301907 0.50575518 0.25726323
v -0.33245360 0.51145989 0.25653862
v -0.33308114 0.51109757 0.25726323
v -0.33164966 0.50575518 0.25726323
v -0.33662970 0.51563597 0.25653862
v -0.33092505 0.50575518 0.25653862
v -0.33699200 0.51500845 0.25726323
v -0.33308114 0.50041288 0.25726323
v -0.34233437 0.51716452 0.25653862
v -0.33245360 0.50005056 0.25653862
v -0.34233437 0.51643987 0.25726323
v -0.33699202 0.49650200 0.25726323
v -0.34803901 0.51563597 0.25653862
v -0.33662970 0.49587440 0.25653862
v -0.34767673 0.51500845 0.25726323
v -0.34233437 0.49507050 0.25726323
v -0.35221513 0.51145989 0.25653862
v -0.34233437 0.49434585 0.25653862
v -0.35158757 0.51109757 0.25726323
v -0.34767673 0.49650200 0.25726323
v -0.35374368 0.50575518 0.25653862
v -0.34803901 0.49587448 0.25653862
v -0.35301907 0.50575518 0.25726323
v -0.35158757 0.50041288 0.25726323
v -0.35221513 0.50005056 0.25653862
v -0.33332523 0.51099472 0.24853247
v -0.33245360 0.51145989 0.25653862
v -0.33092505 0.50575518 0.25653862
v -0.33713294 0.51480235 0.24853247
v -0.33662970 0.51563597 0.25653862
v -0.33193152 0.50579330 0.24853247
v -0.33245360 0.50005056 0.25653862
v -0.33723903 0.51464270 0.24463175
v -0.33332523 0.50059180 0.24853247
v -0.33662970 0.49587440 0.25653862
v -0.33350901 0.51091269 0.24463114
v -0.33214378 0.50581738 0.24463033
v -0.33713294 0.49678417 0.24853247
v -0.34233437 0.49434585 0.25653862
v -0.33352125 0.50200477 0.24437130
v -0.33362497 0.51086086 0.23970783
v -0.33227765 0.50583256 0.23970783
v -0.34233437 0.49539046 0.24853247
v -0.34803901 0.49587448 0.25653862
v -0.33724681 0.49828914 0.24434556
v -0.33363110 0.50279652 0.23970783
v -0.34753577 0.49678417 0.24853247
v -0.35221513 0.50005056 0.25653862
v -0.34233437 0.49692938 0.24433624
v -0.33730988 0.49912267 0.23970783
v -0.35134348 0.50059188 0.24853247
v -0.35374368 0.50575518 0.25653862
v -0.34742190 0.49828914 0.24434556
v -0.34233437 0.49777809 0.23970783
v -0.35273719 0.50579330 0.24853247
v -0.35221513 0.51145989 0.25653862
v -0.35114746 0.50200477 0.24437130
v -0.34735885 0.49912267 0.23970783
v -0.35134348 0.51099472 0.24853247
v -0.34803901 0.51563597 0.25653862
v -0.35252493 0.50581738 0.24463033
v -0.35103763 0.50279652 0.23970783
v -0.34753577 0.51480235 0.24853247
v -0.34233437 0.51716452 0.25653862
v -0.35115970 0.51091269 0.24463114
v -0.35239106 0.50583256 0.23970783
v -0.34233437 0.51619614 0.24853247
v -0.34742970 0.51464270 0.24463175
v -0.34233437 0.51600800 0.24463198
v -0.35104376 0.51086086 0.23970783
v -0.34736273 0.51454189 0.23970783
v -0.34233437 0.51588924 0.23970783
v -0.33730599 0.51454189 0.23970783
v -0.34233437 0.51600800 0.23478368
v -0.34742970 0.51464270 0.23478391
v -0.35115970 0.51091269 0.23478452
v -0.33723903 0.51464270 0.23478391
v -0.33350901 0.51091269 0.23478452
v -0.35252493 0.50581738 0.23478534
v -0.33214378 0.50581738 0.23478534
v -0.35114746 0.50200477 0.23504437
v -0.33352125 0.50200477 0.23504437
v -0.34742190 0.49828914 0.23507010
v -0.33724681 0.49828914 0.23507010
v -0.34233437 0.49692938 0.23507942
v -0.33332523 0.50059180 0.23088319
v -0.33713294 0.49678417 0.23088319
v -0.34233437 0.49539046 0.23088319
v -0.34753577 0.49678417 0.23088319
v -0.33662970 0.49670941 0.22110386
v -0.33245360 0.50053262 0.22110386
v -0.34233437 0.49531006 0.22110386
v -0.33092505 0.50575518 0.22110386
v -0.34803901 0.49670941 0.22110386
v -0.33193152 0.50579330 0.23088319
v -0.33245360 0.51097775 0.22110386
v -0.35134348 0.50059188 0.23088319
v -0.35221513 0.50053262 0.22110386
v -0.35273719 0.50579330 0.23088319
v -0.35374368 0.50575518 0.22110386
v -0.35134348 0.51099472 0.23088319
v -0.35221513 0.51097775 0.22110386
v -0.34753577 0.51480235 0.23088319
v -0.34803901 0.51480096 0.22110386
v -0.34233437 0.51619614 0.23088319
v -0.34233437 0.51620039 0.22110386
v -0.33713294 0.51480235 0.23088319
v -0.33662970 0.51480096 0.22110386
v -0.33332523 0.51099472 0.23088319
v -0.33308114 0.51064611 0.22044047
v -0.33245360 0.51097775 0.22110386
v -0.33092505 0.50575518 0.22110386
v -0.33699200 0.51422650 0.22044047
v -0.33164966 0.50575518 0.22044047
v -0.33662970 0.51480096 0.22110386
v -0.33245360 0.50053262 0.22110386
v -0.34233437 0.51553696 0.22044047
v -0.33308114 0.50086434 0.22044047
v -0.34233437 0.51620039 0.22110386
v -0.33662970 0.49670941 0.22110386
v -0.34767673 0.51422650 0.22044047
v -0.33699202 0.49728395 0.22044047
v -0.34803901 0.51480096 0.22110386
v -0.34233437 0.49531006 0.22110386
v -0.35158757 0.51064611 0.22044047
v -0.34233437 0.49597341 0.22044047
v -0.35221513 0.51097775 0.22110386
v -0.34803901 0.49670941 0.22110386
v -0.35301907 0.50575518 0.22044047
v -0.34767673 0.49728395 0.22044047
v -0.35374368 0.50575518 0.22110386
v -0.35221513 0.50053262 0.22110386
v -0.35158757 0.50086434 0.22044047
v -0.33164966 0.50575518 0.22044047
v -0.34233437 0.50575518 0.22044047
v -0.33308114 0.51064611 0.22044047
v -0.33699200 0.51422650 0.22044047
v -0.33308114 0.50086434 0.22044047
v -0.34233437 0.51553696 0.22044047
v -0.33699202 0.49728395 0.22044047
v -0.34767673 0.51422650 0.22044047
v -0.34233437 0.49597341 0.22044047
v -0.35158757 0.51064611 0.22044047
v -0.34767673 0.49728395 0.22044047
v -0.35301907 0.50575518 0.22044047
v -0.35158757 0.50086434 0.22044047
vn 0.00000000 -0.00000004 1.00000000
vn 0.00000000 -0.00000004 1.00000000
vn 0.00000000 -0.00000004 1.00000000
vn 0.00000000 -0.00000004 1.00000000
vn 0.00000000 -0.00000004 1.00000000
vn 0.00000000 -0.00000004 1.00000000
vn 0.00000000 -0.00000004 1.00000000
vn 0.00000000 -0.00000004 1.00000000
vn 0.00000000 -0.00000004 1.00000000
vn 0.00000000 -0.00000004 1.00000000
vn 0.00000000 -0.00000004 1.00000000
vn 0.00000000 -0.00000004 1.00000000
vn 0.00000000 -0.00000004 1.00000000
vn 0.61237263 0.35355344 0.70710659
vn 0.61237258 0.35355351 0.70710660
vn 0.70710714 -0.00000016 0.70710642
vn 0.35355366 0.61237283 0.70710631
vn 0.70710717 -0.00000016 0.70710639
vn 0.35355359 0.61237282 0.70710635
vn 0.61237257 -0.35355392 0.70710640
vn -0.00000001 0.70710714 0.70710642
vn 0.61237257 -0.35355392 0.70710640
vn -0.00000003 0.70710714 0.70710642
vn 0.35355320 -0.61237292 0.70710646
vn -0.35355344 0.61237257 0.70710664
vn 0.35355315 -0.61237293 0.70710647
vn -0.35355353 0.61237251 0.70710664
vn -0.00000034 -0.70710720 0.70710636
vn -0.61237264 0.35355342 0.70710659
vn -0.00000034 -0.70710720 0.70710636
vn -0.61237259 0.35355348 0.70710660
vn -0.35355390 -0.61237277 0.70710624
vn -0.70710720 0.00000003 0.70710636
vn -0.35355387 -0.61237277 0.70710625
vn -0.70710726 0.00000006 0.70710630
vn -0.61237300 -0.35355360 0.70710618
vn -0.61237304 -0.35355359 0.70710616
vn 0.86275093 0.49801900 -0.08739509
vn 0.85983682 0.49567756 -0.12241081
vn 0.99218985 -0.00074880 -0.12473470
vn 0.49821236 0.86283807 -0.08541021
vn 0.49666879 0.85950560 -0.12070722
vn 0.99593233 -0.00008969 -0.09010426
vn 0.85868263 -0.49650904 -0.12705475
vn 0.49954655 0.86550372 -0.03683133
vn 0.84076365 -0.51579059 -0.16454955
vn 0.49551447 -0.85900447 -0.12875065
vn 0.86526817 0.49982664 -0.03852685
vn 0.99820393 -0.02765232 -0.05314372
vn 0.47910708 -0.85023362 -0.21808072
vn -0.00000046 -0.99159628 -0.12937084
vn 0.83740777 -0.52474869 -0.15292820
vn 0.86580557 0.50038058 0.00000003
vn 0.99750711 -0.06994272 -0.00935846
vn -0.00000045 -0.97219052 -0.23419138
vn -0.49551526 -0.85900402 -0.12875061
vn 0.49182579 -0.83787745 -0.23678848
vn 0.83715512 -0.54684742 -0.01136684
vn -0.47910777 -0.85023325 -0.21808064
vn -0.85868303 -0.49650841 -0.12705454
vn -0.00000099 -0.96374507 -0.26682473
vn 0.51092893 -0.85962296 -0.00000185
vn -0.84371467 -0.50897224 -0.17056615
vn -0.99218987 -0.00074856 -0.12473453
vn -0.49182683 -0.83787643 -0.23678992
vn -0.00000051 -1.00000000 -0.00000006
vn -0.99488670 -0.00973916 -0.10052665
vn -0.85983686 0.49567752 -0.12241068
vn -0.84875321 -0.50868934 -0.14440617
vn -0.51092976 -0.85962247 0.00000178
vn -0.86275093 0.49801900 -0.08739514
vn -0.49666881 0.85950559 -0.12070721
vn -0.99766625 -0.04727542 -0.04926542
vn -0.83715552 -0.54684681 0.01136678
vn -0.49821234 0.86283809 -0.08541019
vn -0.00000002 0.99276384 -0.12008317
vn -0.86526816 0.49982666 -0.03852697
vn -0.99750713 -0.06994246 0.00935843
vn 0.00000002 0.99640791 -0.08468336
vn -0.49954658 0.86550371 -0.03683139
vn 0.00000002 0.99934417 -0.03621095
vn -0.86580557 0.50038058 -0.00000003
vn -0.49978025 0.86615224 0.00000005
vn 0.00000000 1.00000000 0.00000004
vn 0.49978018 0.86615228 0.00000002
vn -0.00000002 0.99934417 0.03621104
vn -0.49954655 0.86550372 0.03683143
vn -0.86526817 0.49982664 0.03852697
vn 0.49954657 0.86550371 0.03683146
vn 0.86526817 0.49982664 0.03852695
vn -0.99820394 -0.02765202 0.05314382
vn 0.99766624 -0.04727567 0.04926536
vn -0.83740813 -0.52474815 0.15292811
vn 0.84875285 -0.50868994 0.14440620
vn -0.49182657 -0.83787704 0.23678830
vn 0.49182592 -0.83787695 0.23678994
vn 0.00000002 -0.96374511 0.26682460
vn 0.84380794 -0.51561838 0.14874759
vn 0.47686314 -0.86159549 0.17393894
vn -0.00191337 -0.98434466 0.17624393
vn -0.47899445 -0.86166202 0.16763913
vn 0.47993416 -0.87687600 0.02741687
vn 0.85385553 -0.51565318 0.07094025
vn -0.00339474 -0.99991842 0.01231400
vn 0.99518657 0.00287747 0.09795621
vn -0.48303978 -0.87467023 0.04030577
vn 0.99619118 -0.00791856 0.08683566
vn 0.85224538 0.51704209 0.07965736
vn -0.84043546 -0.52457828 0.13596273
vn -0.85138707 -0.51783495 0.08358845
vn -0.99707217 -0.00207078 0.07643822
vn -0.99517693 -0.00420927 0.09800592
vn -0.86148401 0.50351323 0.06572473
vn -0.85465509 0.51485056 0.06703421
vn -0.49339120 0.86883278 0.04116698
vn -0.48052666 0.87673742 0.02063075
vn 0.00183861 0.99965046 0.02637391
vn 0.00340099 0.99998395 0.00453108
vn 0.49505720 0.86816581 0.03473469
vn 0.48369245 0.87459453 0.03355638
vn 0.86085497 0.50543445 0.05886198
vn 0.57663077 0.36796152 -0.72945272
vn 0.58287823 0.35705289 -0.72990835
vn 0.67525500 -0.00000006 -0.73758436
vn 0.32396638 0.62041800 -0.71423196
vn 0.67525507 -0.00000008 -0.73758430
vn 0.33404326 0.61455553 -0.71465838
vn 0.58287818 -0.35705322 -0.72990823
vn -0.00000008 0.70710756 -0.70710601
vn 0.57663076 -0.36796167 -0.72945266
vn -0.00000006 0.70710756 -0.70710601
vn 0.33404279 -0.61455543 -0.71465869
vn -0.32396625 0.62041762 -0.71423235
vn 0.32396595 -0.62041791 -0.71423223
vn -0.33404298 0.61455516 -0.71465883
vn -0.00000029 -0.70710750 -0.70710607
vn -0.57663075 0.36796146 -0.72945277
vn -0.00000029 -0.70710753 -0.70710604
vn -0.58287823 0.35705289 -0.72990835
vn -0.33404348 -0.61455525 -0.71465852
vn -0.67525494 0.00000013 -0.73758441
vn -0.32396661 -0.62041775 -0.71423207
vn -0.67525494 0.00000012 -0.73758441
vn -0.58287865 -0.35705295 -0.72990799
vn -0.57663118 -0.36796146 -0.72945242
vn 0.00000000 0.00000004 -1.00000000
vn 0.00000000 0.00000004 -1.00000000
vn 0.00000000 0.00000004 -1.00000000
vn 0.00000000 0.00000004 -1.00000000
vn 0.00000000 0.00000004 -1.00000000
vn 0.00000000 0.00000004 -1.00000000
vn 0.00000000 0.00000004 -1.00000000
vn 0.00000000 0.00000004 -1.00000000
vn 0.00000000 0.00000004 -1.00000000
vn 0.00000000 0.00000004 -1.00000000
vn 0.00000000 0.00000004 -1.00000000
vn 0.00000000 0.00000004 -1.00000000
vn 0.00000000 0.00000004 -1.00000000
f 1//1 2//2 3//3
f 1//1 4//4 2//2
f 1//1 3//3 5//5
f 1//1 6//6 4//4
f 1//1 5//5 7//7
f 1//1 8//8 6//6
f 1//1 7//7 9//9
f 1//1 10//10 8//8
f 1//1 9//9 11//11
f 1//1 12//12 10//10
f 1//1 11//11 13//13
f 1//1 13//13 12//12
f 14//14 15//15 16//16
f 15//15 14//14 17//17
f 16//16 18//18 14//14
f 17//17 19//19 15//15
f 18//18 16//16 20//20
f 19//19 17//17 21//21
f 20//20 22//22 18//18
f 21//21 23//23 19//19
f 22//22 20//20 24//24
f 23//23 21//21 25//25
f 24//24 26//26 22//22
f 25//25 27//27 23//23
f 26//26 24//24 28//28
f 27//27 25//25 29//29
f 28//28 30//30 26//26
f 29//29 31//31 27//27
f 30//30 28//28 32//32
f 31//31 29//29 33//33
f 32//32 34//34 30//30
f 33//33 35//35 31//31
f 34//34 32//32 36//36
f 35//35 33//33 37//37
f 36//36 37//37 34//34
f 37//37 36//36 35//35
f 38//38 39//39 40//40
f 39//39 38//38 41//41
f 41//41 42//42 39//39
f 40//40 43//43 38//38
f 43//43 40//40 44//44
f 45//45 41//41 38//38
f 44//44 46//46 43//43
f 46//46 44//44 47//47
f 48//48 38//38 43//43
f 38//38 48//48 45//45
f 49//49 43//43 46//46
f 43//43 49//49 48//48
f 47//47 50//50 46//46
f 50//50 47//47 51//51
f 46//46 52//52 49//49
f 52//52 46//46 50//50
f 53//53 48//48 49//49
f 54//54 49//49 52//52
f 49//49 54//54 53//53
f 51//51 55//55 50//50
f 55//55 51//51 56//56
f 50//50 57//57 52//52
f 57//57 50//50 55//55
f 52//52 58//58 54//54
f 58//58 52//52 57//57
f 56//56 59//59 55//55
f 59//59 56//56 60//60
f 55//55 61//61 57//57
f 61//61 55//55 59//59
f 57//57 62//62 58//58
f 62//62 57//57 61//61
f 60//60 63//63 59//59
f 63//63 60//60 64//64
f 59//59 65//65 61//61
f 65//65 59//59 63//63
f 61//61 66//66 62//62
f 66//66 61//61 65//65
f 64//64 67//67 63//63
f 67//67 64//64 68//68
f 63//63 69//69 65//65
f 69//69 63//63 67//67
f 65//65 70//70 66//66
f 70//70 65//65 69//69
f 68//68 71//71 67//67
f 71//71 68//68 72//72
f 67//67 73//73 69//69
f 73//73 67//67 71//71
f 69//69 74//74 70//70
f 74//74 69//69 73//73
f 72//72 75//75 71//71
f 75//75 72//72 76//76
f 71//71 77//77 73//73
f 77//77 71//71 75//75
f 73//73 78//78 74//74
f 78//78 73//73 77//77
f 76//76 79//79 75//75
f 79//79 76//76 42//42
f 42//42 41//41 79//79
f 80//80 75//75 79//79
f 75//75 80//80 77//77
f 81//81 79//79 41//41
f 79//79 81//81 80//80
f 41//41 45//45 81//81
f 82//82 77//77 80//80
f 77//77 82//82 78//78
f 83//83 80//80 81//81
f 80//80 83//83 82//82
f 84//84 81//81 45//45
f 81//81 84//84 83//83
f 45//45 85//85 84//84
f 85//85 45//45 48//48
f 48//48 53//53 85//85
f 86//86 84//84 85//85
f 87//87 83//83 84//84
f 84//84 86//86 87//87
f 83//83 87//87 88//88
f 88//88 82//82 83//83
f 89//89 85//85 53//53
f 85//85 89//89 86//86
f 53//53 90//90 89//89
f 90//90 53//53 54//54
f 82//82 88//88 91//91
f 91//91 78//78 82//82
f 54//54 92//92 90//90
f 92//92 54//54 58//58
f 78//78 91//91 93//93
f 93//93 74//74 78//78
f 58//58 94//94 92//92
f 94//94 58//58 62//62
f 74//74 93//93 95//95
f 95//95 70//70 74//74
f 62//62 96//96 94//94
f 96//96 62//62 66//66
f 97//97 66//66 70//70
f 66//66 97//97 96//96
f 70//70 95//95 97//97
f 98//98 94//94 96//96
f 99//99 96//96 97//97
f 96//96 99//99 98//98
f 100//100 97//97 95//95
f 97//97 100//100 99//99
f 95//95 101//101 100//100
f 101//101 95//95 93//93
f 102//102 99//99 100//100
f 99//99 102//102 103//103
f 103//103 98//98 99//99
f 100//100 104//104 102//102
f 104//104 100//100 101//101
f 98//98 103//103 105//105
f 101//101 106//106 104//104
f 105//105 107//107 98//98
f 94//94 98//98 107//107
f 107//107 105//105 108//108
f 107//107 92//92 94//94
f 106//106 101//101 109//109
f 93//93 109//109 101//101
f 109//109 110//110 106//106
f 109//109 93//93 91//91
f 110//110 109//109 111//111
f 91//91 111//111 109//109
f 111//111 112//112 110//110
f 111//111 91//91 88//88
f 112//112 111//111 113//113
f 88//88 113//113 111//111
f 113//113 114//114 112//112
f 113//113 88//88 87//87
f 114//114 113//113 115//115
f 87//87 115//115 113//113
f 115//115 116//116 114//114
f 115//115 87//87 86//86
f 116//116 115//115 117//117
f 86//86 117//117 115//115
f 117//117 118//118 116//116
f 117//117 86//86 89//89
f 118//118 117//117 119//119
f 89//89 119//119 117//117
f 119//119 120//120 118//118
f 119//119 89//89 90//90
f 120//120 119//119 121//121
f 90//90 121//121 119//119
f 121//121 108//108 120//120
f 121//121 90//90 92//92
f 108//108 121//121 107//107
f 92//92 107//107 121//121
f 122//122 123//123 124//124
f 123//123 122//122 125//125
f 124//124 126//126 122//122
f 125//125 127//127 123//123
f 126//126 124//124 128//128
f 127//127 125//125 129//129
f 128//128 130//130 126//126
f 129//129 131//131 127//127
f 130//130 128//128 132//132
f 131//131 129//129 133//133
f 132//132 134//134 130//130
f 133//133 135//135 131//131
f 134//134 132//132 136//136
f 135//135 133//133 137//137
f 136//136 138//138 134//134
f 137//137 139//139 135//135
f 138//138 136//136 140//140
f 139//139 137//137 141//141
f 140//140 142//142 138//138
f 141//141 143//143 139//139
f 142//142 140//140 144//144
f 143//143 141//141 145//145
f 144//144 145//145 142//142
f 145//145 144//144 143//143
f 146//146 147//147 148//148
f 148//148 147//147 149//149
f 150//150 147//147 146//146
f 149//149 147//147 151//151
f 152//152 147//147 150//150
f 151//151 147//147 153//153
f 154//154 147//147 152//152
f 153//153 147//147 155//155
f 156//156 147//147 154//154
f 155//155 147//147 157//157
f 158//158 147//147 156//156
f 157//157 147//147 158//158

