# https://github.com/mikedh/trimesh
mtllib 2c681d7e64e0410d76156f500cd2df798975a25d_part_2.mtl
usemtl texture_44f0dfb9-1735-44a9-a9b8-d54518bb4660
v -0.69248996 0.39143820 0.22120581
v -0.69248988 0.39143820 0.19546098
v -0.01358350 0.39143811 0.19546198
v -0.01358354 0.39143811 0.22120679
v -0.69331166 0.44801929 0.22120581
v -0.69331158 0.44801929 0.19546098
v -0.69331158 0.39225981 0.19546098
v -0.69331166 0.39225981 0.22120581
v -0.69331166 0.56914771 0.22120579
v -0.69331158 0.56914771 0.19546098
v -0.69205605 0.58119819 0.22120579
v -0.69205597 0.58119819 0.19546098
v -0.68863891 0.59072163 0.22120581
v -0.68863891 0.59072163 0.19546098
v -0.68326437 0.59915891 0.22120581
v -0.68326429 0.59915891 0.19546098
v -0.67620215 0.60622125 0.22120583
v -0.67620211 0.60622125 0.19546100
v -0.68326429 0.59915891 0.19546098
v -0.68326437 0.59915891 0.22120581
v -0.66776483 0.61159555 0.22120583
v -0.66776479 0.61159555 0.19546100
v -0.65824131 0.61501278 0.22120585
v -0.65824123 0.61501278 0.19546102
v -0.64619103 0.61626838 0.22120587
v -0.64619099 0.61626838 0.19546104
v -0.01276188 0.61626838 0.22120679
v -0.01276184 0.61626838 0.19546196
v -0.01276190 0.39225981 0.22120679
v -0.01276187 0.39225981 0.19546198
v -0.01276184 0.61626838 0.19546196
v -0.01276188 0.61626838 0.22120679
v -0.64614830 0.61544685 0.19463941
v -0.01358349 0.61544685 0.19464032
v -0.01358350 0.39225981 0.19464032
v -0.69248988 0.39225981 0.19463934
v -0.69248988 0.44801929 0.19463934
v -0.69248988 0.56910494 0.19463932
v -0.69124905 0.58101422 0.19463934
v -0.65805725 0.61420593 0.19463939
v -0.66740083 0.61085327 0.19463936
v -0.67568478 0.60557659 0.19463936
v -0.68789647 0.59035759 0.19463934
v -0.68261967 0.59864150 0.19463934
v -0.67568482 0.60557659 0.22202747
v -0.68261975 0.59864150 0.22202745
v -0.68789655 0.59035759 0.22202745
v -0.69124913 0.58101422 0.22202745
v -0.66740087 0.61085327 0.22202747
v -0.65805733 0.61420593 0.22202749
v -0.64614834 0.61544685 0.22202751
v -0.69248996 0.56910494 0.22202745
v -0.69248996 0.44801929 0.22202745
v -0.69248996 0.39225981 0.22202745
v -0.01358354 0.39225981 0.22202845
v -0.01358353 0.61544685 0.22202843
v -0.01358350 0.39143811 0.19546198
v -0.01358350 0.39225981 0.19464032
v -0.01276187 0.39225981 0.19546198
v -0.69248988 0.39225981 0.19463934
v -0.69248988 0.39143820 0.19546098
v -0.69331158 0.39225981 0.19546098
v -0.01358354 0.39143811 0.22120679
v -0.01276190 0.39225981 0.22120679
v -0.01358354 0.39225981 0.22202845
v -0.69331166 0.39225981 0.22120581
v -0.69248996 0.39143820 0.22120581
v -0.69248996 0.39225981 0.22202745
v -0.01358350 0.39143811 0.19546198
v -0.69248988 0.39143820 0.19546098
v -0.69248988 0.39225981 0.19463934
v -0.01358350 0.39225981 0.19464032
v -0.69248988 0.39143820 0.19546098
v -0.69248996 0.39143820 0.22120581
v -0.69331166 0.39225981 0.22120581
v -0.69331158 0.39225981 0.19546098
v -0.69248996 0.39143820 0.22120581
v -0.01358354 0.39143811 0.22120679
v -0.01358354 0.39225981 0.22202845
v -0.69248996 0.39225981 0.22202745
v -0.01358354 0.39143811 0.22120679
v -0.01358350 0.39143811 0.19546198
v -0.01276187 0.39225981 0.19546198
v -0.01276190 0.39225981 0.22120679
v -0.69331158 0.39225981 0.19546098
v -0.69331158 0.44801929 0.19546098
v -0.69248988 0.44801929 0.19463934
v -0.69248988 0.39225981 0.19463934
v -0.69248988 0.56910494 0.19463932
v -0.69331158 0.56914771 0.19546098
v -0.69124905 0.58101422 0.19463934
v -0.69205597 0.58119819 0.19546098
v -0.68789647 0.59035759 0.19463934
v -0.68863891 0.59072163 0.19546098
v -0.68261967 0.59864150 0.19463934
v -0.68326429 0.59915891 0.19546098
v -0.67568478 0.60557659 0.19463936
v -0.67620211 0.60622125 0.19546100
v -0.66740083 0.61085327 0.19463936
v -0.66776479 0.61159555 0.19546100
v -0.65805725 0.61420593 0.19463939
v -0.65824123 0.61501278 0.19546102
v -0.64614830 0.61544685 0.19463941
v -0.64619099 0.61626838 0.19546104
v -0.01358349 0.61544685 0.19464032
v -0.01276184 0.61626838 0.19546196
v -0.69331166 0.44801929 0.22120581
v -0.69331166 0.39225981 0.22120581
v -0.69248996 0.39225981 0.22202745
v -0.69248996 0.44801929 0.22202745
v -0.69331166 0.56914771 0.22120579
v -0.69248996 0.56910494 0.22202745
v -0.69205605 0.58119819 0.22120579
v -0.69124913 0.58101422 0.22202745
v -0.68863891 0.59072163 0.22120581
v -0.68789655 0.59035759 0.22202745
v -0.68326437 0.59915891 0.22120581
v -0.68261975 0.59864150 0.22202745
v -0.67620215 0.60622125 0.22120583
v -0.67568482 0.60557659 0.22202747
v -0.66776483 0.61159555 0.22120583
v -0.66740087 0.61085327 0.22202747
v -0.65824131 0.61501278 0.22120585
v -0.65805733 0.61420593 0.22202749
v -0.64619103 0.61626838 0.22120587
v -0.64614834 0.61544685 0.22202751
v -0.01276188 0.61626838 0.22120679
v -0.01358353 0.61544685 0.22202843
v -0.01276184 0.61626838 0.19546196
v -0.01276187 0.39225981 0.19546198
v -0.01358350 0.39225981 0.19464032
v -0.01358349 0.61544685 0.19464032
v -0.01276190 0.39225981 0.22120679
v -0.01276188 0.61626838 0.22120679
v -0.01358353 0.61544685 0.22202843
v -0.01358354 0.39225981 0.22202845
vn -0.00000008 -1.00000000 0.00000000
vn -0.00000008 -1.00000000 0.00000000
vn -0.00000008 -1.00000000 0.00000000
vn -0.00000008 -1.00000000 0.00000000
vn -1.00000000 0.00000000 -0.00000238
vn -1.00000000 0.00000000 -0.00000238
vn -1.00000000 0.00000000 -0.00000238
vn -1.00000000 0.00000000 -0.00000238
vn -0.99865296 0.05188707 -0.00000238
vn -0.99865296 0.05188707 -0.00000238
vn -0.97498102 0.22228812 -0.00000232
vn -0.97498101 0.22228816 -0.00000232
vn -0.89789043 0.44021901 -0.00000214
vn -0.89789040 0.44021908 -0.00000214
vn -0.77990282 0.62590063 -0.00000186
vn -0.77990274 0.62590073 -0.00000186
vn -0.62589967 0.77990359 -0.00000149
vn -0.62589957 0.77990367 -0.00000149
vn -0.77990274 0.62590073 -0.00000186
vn -0.77990282 0.62590063 -0.00000186
vn -0.44021290 0.89789342 -0.00000105
vn -0.44021278 0.89789348 -0.00000105
vn -0.22229470 0.97497952 -0.00000053
vn -0.22229455 0.97497956 -0.00000053
vn -0.05188822 0.99865290 -0.00000012
vn -0.05188815 0.99865290 -0.00000012
vn 0.00000000 1.00000000 0.00000000
vn 0.00000000 1.00000000 0.00000000
vn 1.00000000 -0.00000012 0.00000136
vn 1.00000000 -0.00000012 0.00000136
vn 1.00000000 -0.00000012 0.00000136
vn 1.00000000 -0.00000012 0.00000136
vn 0.00000145 -0.00000006 -1.00000000
vn 0.00000146 -0.00000004 -1.00000000
vn 0.00000146 -0.00000005 -1.00000000
vn 0.00000146 -0.00000005 -1.00000000
vn 0.00000148 -0.00000006 -1.00000000
vn 0.00000141 0.00000000 -1.00000000
vn 0.00000125 0.00000014 -1.00000000
vn 0.00000146 -0.00000012 -1.00000000
vn 0.00000138 -0.00000006 -1.00000000
vn 0.00000106 0.00000020 -1.00000000
vn 0.00000156 -0.00000011 -1.00000000
vn 0.00000315 -0.00000139 -1.00000000
vn -0.00000145 0.00000004 1.00000000
vn -0.00000146 0.00000005 1.00000000
vn -0.00000145 0.00000004 1.00000000
vn -0.00000145 0.00000004 1.00000000
vn -0.00000145 0.00000004 1.00000000
vn -0.00000145 0.00000004 1.00000000
vn -0.00000145 0.00000004 1.00000000
vn -0.00000145 0.00000004 1.00000000
vn -0.00000145 0.00000004 1.00000000
vn -0.00000145 0.00000004 1.00000000
vn -0.00000145 0.00000004 1.00000000
vn -0.00000145 0.00000004 1.00000000
vn 0.57735818 -0.57733952 -0.57735311
vn 0.57735808 -0.57733960 -0.57735313
vn 0.57735808 -0.57733960 -0.57735313
vn -0.57734467 -0.57734610 -0.57736004
vn -0.57734467 -0.57734610 -0.57736004
vn -0.57734467 -0.57734610 -0.57736004
vn 0.57735752 -0.57733994 0.57735335
vn 0.57735752 -0.57733994 0.57735335
vn 0.57735752 -0.57733994 0.57735335
vn -0.57734649 -0.57734566 0.57735865
vn -0.57734651 -0.57734562 0.57735867
vn -0.57734651 -0.57734562 0.57735867
vn 0.00000097 -0.70709832 -0.70711524
vn 0.00000097 -0.70709832 -0.70711524
vn 0.00000097 -0.70709832 -0.70711524
vn 0.00000097 -0.70709832 -0.70711524
vn -0.70710678 -0.70710678 -0.00000168
vn -0.70710678 -0.70710678 -0.00000168
vn -0.70710678 -0.70710678 -0.00000168
vn -0.70710678 -0.70710678 -0.00000168
vn -0.00000108 -0.70709867 0.70711489
vn -0.00000108 -0.70709870 0.70711486
vn -0.00000108 -0.70709870 0.70711486
vn -0.00000108 -0.70709862 0.70711495
vn 0.70711805 -0.70709552 0.00000096
vn 0.70711802 -0.70709555 0.00000096
vn 0.70711802 -0.70709555 0.00000096
vn 0.70711802 -0.70709555 0.00000096
vn -0.70709739 -0.00000004 -0.70711617
vn -0.70709742 -0.00000004 -0.70711614
vn -0.70709742 -0.00000004 -0.70711614
vn -0.70709742 -0.00000004 -0.70711614
vn -0.70566873 0.03666332 -0.70759271
vn -0.70566881 0.03666498 -0.70759255
vn -0.68690306 0.15660910 -0.70967442
vn -0.68690263 0.15660994 -0.70967465
vn -0.63291507 0.31030413 -0.70931648
vn -0.63291412 0.31030660 -0.70931624
vn -0.54982472 0.44125182 -0.70921761
vn -0.54982384 0.44125469 -0.70921650
vn -0.44126120 0.54983419 -0.70920443
vn -0.44126074 0.54983549 -0.70920370
vn -0.31031418 0.63294386 -0.70928639
vn -0.31031493 0.63294382 -0.70928610
vn -0.15661640 0.68692541 -0.70965117
vn -0.15661787 0.68692512 -0.70965112
vn -0.03666572 0.70569323 -0.70756815
vn -0.03666491 0.70569319 -0.70756823
vn 0.00000103 0.70712043 -0.70709313
vn 0.00000103 0.70712046 -0.70709310
vn -0.70709936 0.00000003 0.70711420
vn -0.70709936 0.00000003 0.70711420
vn -0.70709936 0.00000003 0.70711420
vn -0.70709936 0.00000003 0.70711420
vn -0.70566981 0.03666528 0.70759153
vn -0.70567007 0.03666366 0.70759136
vn -0.68690505 0.15660893 0.70967253
vn -0.68690504 0.15660794 0.70967276
vn -0.63291520 0.31030816 0.70931459
vn -0.63291634 0.31030611 0.70931448
vn -0.54982455 0.44125364 0.70921661
vn -0.54982716 0.44125232 0.70921540
vn -0.44126334 0.54983448 0.70920287
vn -0.44126462 0.54983436 0.70920216
vn -0.31031680 0.63294351 0.70928555
vn -0.31031612 0.63294411 0.70928532
vn -0.15662028 0.68692446 0.70965123
vn -0.15661873 0.68692482 0.70965123
vn -0.03666715 0.70569286 0.70756844
vn -0.03666786 0.70569270 0.70756857
vn -0.00000103 0.70712124 0.70709233
vn -0.00000103 0.70712121 0.70709236
vn 0.70710434 -0.00000007 -0.70710922
vn 0.70710991 -0.00000011 -0.70710365
vn 0.70710982 -0.00000011 -0.70710374
vn 0.70710428 -0.00000007 -0.70710928
vn 0.70710934 -0.00000001 0.70710422
vn 0.70710374 -0.00000005 0.70710982
vn 0.70710374 -0.00000005 0.70710982
vn 0.70710934 -0.00000001 0.70710422
vt 0.03047001 0.98997402
vt 0.96952897 0.98997402
vt 0.96953005 -0.00265539
vt 0.03047115 -0.00265539
vt 0.96952999 0.67833090
vt 0.03047103 0.67833090
vt 0.03047103 0.80037951
vt 0.96952999 0.80037951
vt 0.96952999 0.41319954
vt 0.03047103 0.41319954
vt 0.96952999 0.38682282
vt 0.03047103 0.38682282
vt 0.96952993 0.36597753
vt 0.03047103 0.36597753
vt 0.96952993 0.34750962
vt 0.03047103 0.34750962
vt 0.96952993 0.96615970
vt 0.03047097 0.96615970
vt 0.03047103 0.97648537
vt 0.96952993 0.97648537
vt 0.96952987 0.95382345
vt 0.03047097 0.95382345
vt 0.96952987 0.93989909
vt 0.03047097 0.93989909
vt 0.96952987 0.92228043
vt 0.03047097 0.92228043
vt 0.96952885 -0.00385660
vt 0.03046995 -0.00385660
vt 0.03047115 0.80037928
vt 0.96953005 0.80037928
vt 0.96953005 0.31005919
vt 0.03047115 0.31005919
vt 0.68814218 0.92221797
vt 0.68814242 -0.00265527
vt 0.19962072 -0.00265539
vt 0.19962049 0.98997402
vt 0.32166910 0.98997402
vt 0.58670700 0.98997414
vt 0.61277449 0.98815978
vt 0.68542612 0.93963015
vt 0.67808759 0.95329130
vt 0.66653788 0.96540332
vt 0.63322580 0.98325813
vt 0.65135789 0.97554278
vt 0.33346212 0.96540332
vt 0.34864211 0.97554278
vt 0.36677420 0.98325813
vt 0.38722551 0.98815978
vt 0.32191241 0.95329130
vt 0.31457388 0.93963015
vt 0.31185782 0.92221797
vt 0.41329300 0.98997414
vt 0.67833090 0.98997402
vt 0.80037951 0.98997402
vt 0.80037928 -0.00265539
vt 0.31185758 -0.00265527
vt 0.19782221 -0.00265539
vt 0.19962072 -0.00265539
vt 0.19962072 -0.00385666
vt 0.19962049 0.98997402
vt 0.19782197 0.98997402
vt 0.19962049 0.99117541
vt 0.80217779 -0.00265539
vt 0.80037928 -0.00385666
vt 0.80037928 -0.00265539
vt 0.80037951 0.99117541
vt 0.80217803 0.98997402
vt 0.80037951 0.98997402
vt 0.19782221 -0.00265539
vt 0.19782197 0.98997402
vt 0.19962049 0.98997402
vt 0.19962072 -0.00265539
vt 0.96952897 0.98997402
vt 0.03047001 0.98997402
vt 0.03047001 0.99117541
vt 0.96952897 0.99117541
vt 0.80217803 0.98997402
vt 0.80217779 -0.00265539
vt 0.80037928 -0.00265539
vt 0.80037951 0.98997402
vt 0.03047115 -0.00265539
vt 0.96953005 -0.00265539
vt 0.96953005 -0.00385666
vt 0.03047115 -0.00385666
vt 0.19962049 0.99117541
vt 0.32166910 0.99117541
vt 0.32166910 0.98997402
vt 0.19962049 0.98997402
vt 0.58670700 0.98997414
vt 0.58680046 0.99117541
vt 0.61277449 0.98815978
vt 0.61317718 0.98933959
vt 0.63322580 0.98325813
vt 0.63402247 0.98434353
vt 0.65135789 0.97554278
vt 0.65249038 0.97648537
vt 0.66653788 0.96540332
vt 0.66794884 0.96615970
vt 0.67808759 0.95329130
vt 0.67971241 0.95382345
vt 0.68542612 0.93963015
vt 0.68719208 0.93989909
vt 0.68814218 0.92221797
vt 0.68994057 0.92228043
vt 0.68814242 -0.00265527
vt 0.68994081 -0.00385660
vt 0.67833090 0.99117541
vt 0.80037951 0.99117541
vt 0.80037951 0.98997402
vt 0.67833090 0.98997402
vt 0.41319954 0.99117541
vt 0.41329300 0.98997414
vt 0.38682282 0.98933959
vt 0.38722551 0.98815978
vt 0.36597753 0.98434353
vt 0.36677420 0.98325813
vt 0.34750962 0.97648537
vt 0.34864211 0.97554278
vt 0.33205116 0.96615970
vt 0.33346212 0.96540332
vt 0.32028759 0.95382345
vt 0.32191241 0.95329130
vt 0.31280792 0.93989909
vt 0.31457388 0.93963015
vt 0.31005943 0.92228043
vt 0.31185782 0.92221797
vt 0.31005919 -0.00385660
vt 0.31185758 -0.00265527
vt 0.68994081 -0.00385660
vt 0.19962072 -0.00385666
vt 0.19962072 -0.00265539
vt 0.68814242 -0.00265527
vt 0.80037928 -0.00385666
vt 0.31005919 -0.00385660
vt 0.31185758 -0.00265527
vt 0.80037928 -0.00265539
f 1/1/1 2/2/2 3/3/3
f 3/3/3 4/4/4 1/1/1
f 5/5/5 6/6/6 7/7/7
f 7/7/7 8/8/8 5/5/5
f 6/6/6 5/5/5 9/9/9
f 9/9/9 10/10/10 6/6/6
f 10/10/10 9/9/9 11/11/11
f 11/11/11 12/12/12 10/10/10
f 12/12/12 11/11/11 13/13/13
f 13/13/13 14/14/14 12/12/12
f 14/14/14 13/13/13 15/15/15
f 15/15/15 16/16/16 14/14/14
f 17/17/17 18/18/18 19/19/19
f 19/19/19 20/20/20 17/17/17
f 18/18/18 17/17/17 21/21/21
f 21/21/21 22/22/22 18/18/18
f 22/22/22 21/21/21 23/23/23
f 23/23/23 24/24/24 22/22/22
f 24/24/24 23/23/23 25/25/25
f 25/25/25 26/26/26 24/24/24
f 26/26/26 25/25/25 27/27/27
f 27/27/27 28/28/28 26/26/26
f 29/29/29 30/30/30 31/31/31
f 31/31/31 32/32/32 29/29/29
f 33/33/33 34/34/34 35/35/35
f 33/33/33 35/35/35 36/36/36
f 33/33/33 36/36/36 37/37/37
f 33/33/33 37/37/37 38/38/38
f 33/33/33 38/38/38 39/39/39
f 33/33/33 39/39/39 40/40/40
f 39/39/39 41/41/41 40/40/40
f 39/39/39 42/42/42 41/41/41
f 39/39/39 43/43/43 42/42/42
f 43/43/43 44/44/44 42/42/42
f 45/45/45 46/46/46 47/47/47
f 45/45/45 47/47/47 48/48/48
f 49/49/49 45/45/45 48/48/48
f 50/50/50 49/49/49 48/48/48
f 51/51/51 50/50/50 48/48/48
f 51/51/51 48/48/48 52/52/52
f 51/51/51 52/52/52 53/53/53
f 51/51/51 53/53/53 54/54/54
f 51/51/51 54/54/54 55/55/55
f 51/51/51 55/55/55 56/56/56
f 57/57/57 58/58/58 59/59/59
f 60/60/60 61/61/61 62/62/62
f 63/63/63 64/64/64 65/65/65
f 66/66/66 67/67/67 68/68/68
f 69/69/69 70/70/70 71/71/71
f 71/71/71 72/72/72 69/69/69
f 73/73/73 74/74/74 75/75/75
f 75/75/75 76/76/76 73/73/73
f 77/77/77 78/78/78 79/79/79
f 79/79/79 80/80/80 77/77/77
f 81/81/81 82/82/82 83/83/83
f 83/83/83 84/84/84 81/81/81
f 85/85/85 86/86/86 87/87/87
f 87/87/87 88/88/88 85/85/85
f 89/89/89 87/87/87 86/86/86
f 86/86/86 90/90/90 89/89/89
f 91/91/91 89/89/89 90/90/90
f 90/90/90 92/92/92 91/91/91
f 93/93/93 91/91/91 92/92/92
f 92/92/92 94/94/94 93/93/93
f 95/95/95 93/93/93 94/94/94
f 94/94/94 96/96/96 95/95/95
f 97/97/97 95/95/95 96/96/96
f 96/96/96 98/98/98 97/97/97
f 99/99/99 97/97/97 98/98/98
f 98/98/98 100/100/100 99/99/99
f 101/101/101 99/99/99 100/100/100
f 100/100/100 102/102/102 101/101/101
f 103/103/103 101/101/101 102/102/102
f 102/102/102 104/104/104 103/103/103
f 105/105/105 103/103/103 104/104/104
f 104/104/104 106/106/106 105/105/105
f 107/107/107 108/108/108 109/109/109
f 109/109/109 110/110/110 107/107/107
f 111/111/111 107/107/107 110/110/110
f 110/110/110 112/112/112 111/111/111
f 113/113/113 111/111/111 112/112/112
f 112/112/112 114/114/114 113/113/113
f 115/115/115 113/113/113 114/114/114
f 114/114/114 116/116/116 115/115/115
f 117/117/117 115/115/115 116/116/116
f 116/116/116 118/118/118 117/117/117
f 119/119/119 117/117/117 118/118/118
f 118/118/118 120/120/120 119/119/119
f 121/121/121 119/119/119 120/120/120
f 120/120/120 122/122/122 121/121/121
f 123/123/123 121/121/121 122/122/122
f 122/122/122 124/124/124 123/123/123
f 125/125/125 123/123/123 124/124/124
f 124/124/124 126/126/126 125/125/125
f 127/127/127 125/125/125 126/126/126
f 126/126/126 128/128/128 127/127/127
f 129/129/129 130/130/130 131/131/131
f 131/131/131 132/132/132 129/129/129
f 133/133/133 134/134/134 135/135/135
f 135/135/135 136/136/136 133/133/133

